<svg width="214" height="47" viewBox="0 0 214 47" fill="none" xmlns="http://www.w3.org/2000/svg">
<g filter="url(#filter0_d)">
<path fill-rule="evenodd" clip-rule="evenodd" d="M4.5 2.26087C4.5 1.01223 5.50654 0 6.74818 0H79.2518C80.4935 0 81.5 1.01223 81.5 2.26087V36.7391C81.5 37.9878 80.4935 39 79.2518 39H6.74818C5.50654 39 4.5 37.9878 4.5 36.7391V2.26087ZM15.1788 8.17308C15.1788 7.49458 15.944 7.10701 16.4807 7.51365L26.6556 15.2229C26.8609 15.3785 26.9818 15.6228 26.9818 15.8824V30.8284C26.9818 31.2834 26.6173 31.6522 26.1678 31.6522H15.9928C15.5433 31.6522 15.1788 31.2834 15.1788 30.8284V8.17308ZM41.9172 7.51366C42.4794 7.10701 43.281 7.49458 43.281 8.17309V30.8284C43.281 31.2834 42.8992 31.6522 42.4283 31.6522H31.7688C31.2978 31.6522 30.9161 31.2834 30.9161 30.8284V15.8824C30.9161 15.6228 31.0427 15.3785 31.2577 15.2229L41.9172 7.51366ZM69 7.34782C69.667 7.34782 71.5 7.5 70 9L63.1744 15.5881C63.0211 15.7377 62.778 15.8261 62.5195 15.8261H48.0287C47.5795 15.8261 47.2153 15.5643 47.2153 15.2414V7.93253C47.2153 7.60961 47.5795 7.34782 48.0287 7.34782H69ZM47.3903 30.2389C46.9659 30.8175 47.3617 31.6522 48.0606 31.6522H69.9775C70.4434 31.6522 70.8212 31.2585 70.8212 30.7729V20.6618C70.8212 20.1763 70.4434 19.7826 69.9774 19.7826H55.4793C55.2164 19.7826 54.9686 19.9102 54.809 20.1278L47.3903 30.2389Z" fill="#FF3333"/>
</g>
<g filter="url(#filter1_d)">
<path d="M102.43 11.8164L102.414 3.30459L98.348 10.3978H97.6087L93.5428 3.35466V11.8164H92V0.133518H93.3178L98.0105 8.34492L102.639 0.133518H103.957L103.973 11.8164H102.43Z" fill="white"/>
<path d="M115.577 12L114.083 10.4478C113.086 11.4492 111.833 11.9499 110.322 11.9499C109.572 11.9499 108.897 11.822 108.297 11.5661C107.697 11.3102 107.226 10.9541 106.883 10.4979C106.551 10.0306 106.385 9.50209 106.385 8.91238C106.385 8.20028 106.594 7.57163 107.011 7.02643C107.44 6.4701 108.142 5.90264 109.117 5.32406C108.624 4.81224 108.276 4.35049 108.072 3.9388C107.869 3.52712 107.767 3.09875 107.767 2.65369C107.767 1.8637 108.04 1.22949 108.586 0.751042C109.144 0.2726 109.883 0.0333793 110.804 0.0333793C111.661 0.0333793 112.342 0.250347 112.845 0.684283C113.349 1.11822 113.601 1.71349 113.601 2.4701C113.601 3.0598 113.413 3.58832 113.038 4.05563C112.674 4.52295 112.063 5.01252 111.206 5.52434L113.986 8.39499C114.308 7.76078 114.538 7.05424 114.677 6.27538L115.915 6.69263C115.722 7.71627 115.395 8.6064 114.934 9.363L116.445 10.9319L115.577 12ZM110.804 1.20167C110.301 1.20167 109.904 1.33519 109.615 1.60222C109.336 1.85814 109.197 2.1975 109.197 2.62031C109.197 2.92072 109.272 3.21001 109.422 3.48818C109.583 3.76634 109.888 4.14464 110.338 4.62309C111.077 4.18915 111.586 3.81641 111.865 3.50487C112.154 3.19332 112.299 2.85396 112.299 2.48679C112.299 2.09736 112.165 1.78581 111.897 1.55216C111.64 1.3185 111.276 1.20167 110.804 1.20167ZM110.419 10.6147C111.533 10.6147 112.449 10.2476 113.167 9.51321L109.969 6.20862C109.197 6.65369 108.656 7.07093 108.345 7.46036C108.045 7.83866 107.895 8.26704 107.895 8.74548C107.895 9.30181 108.126 9.75243 108.586 10.0974C109.058 10.4423 109.669 10.6147 110.419 10.6147Z" fill="white"/>
<path d="M121.645 11.9499C120.798 11.9499 119.979 11.8164 119.186 11.5494C118.404 11.2712 117.788 10.9152 117.338 10.4812L117.932 9.17942C118.361 9.57997 118.907 9.90821 119.572 10.1641C120.247 10.4089 120.938 10.5313 121.645 10.5313C122.577 10.5313 123.273 10.37 123.734 10.0473C124.195 9.71349 124.425 9.27399 124.425 8.72879C124.425 8.32823 124.296 8.00556 124.039 7.76078C123.793 7.50487 123.482 7.31015 123.107 7.17663C122.743 7.04311 122.223 6.89291 121.548 6.72601C120.702 6.5146 120.016 6.3032 119.491 6.09179C118.977 5.88039 118.532 5.55772 118.157 5.12378C117.793 4.67872 117.611 4.08345 117.611 3.33797C117.611 2.71488 117.766 2.15299 118.077 1.65229C118.398 1.1516 118.881 0.751042 119.523 0.450625C120.166 0.150208 120.964 0 121.918 0C122.582 0 123.236 0.0890124 123.879 0.267037C124.521 0.445062 125.073 0.700973 125.534 1.03477L125.004 2.36996C124.532 2.05841 124.029 1.82476 123.493 1.66898C122.957 1.50209 122.432 1.41864 121.918 1.41864C121.007 1.41864 120.322 1.5911 119.861 1.93602C119.411 2.28095 119.186 2.72601 119.186 3.27121C119.186 3.67177 119.315 4 119.572 4.25591C119.829 4.5007 120.145 4.69541 120.52 4.84005C120.906 4.97357 121.425 5.11822 122.079 5.27399C122.925 5.4854 123.605 5.6968 124.12 5.90821C124.634 6.11961 125.073 6.44228 125.438 6.87622C125.813 7.31015 126 7.8943 126 8.62865C126 9.24061 125.839 9.8025 125.518 10.3143C125.196 10.815 124.709 11.2156 124.055 11.516C123.402 11.8053 122.598 11.9499 121.645 11.9499Z" fill="white"/>
</g>
<g filter="url(#filter2_d)">
<path d="M96.875 39C95.7578 39 94.6663 38.8702 93.6004 38.6107C92.5474 38.3374 91.6806 37.9754 91 37.5246L92.4639 34C93.106 34.3962 93.8251 34.7172 94.6213 34.9631C95.4175 35.1954 96.1816 35.3115 96.9135 35.3115C97.5428 35.3115 97.9922 35.25 98.2619 35.127C98.5316 34.9904 98.6664 34.7924 98.6664 34.5328C98.6664 34.2322 98.4866 34.0068 98.127 33.8566C97.7803 33.7063 97.2025 33.5423 96.3934 33.3648C95.3533 33.1325 94.4865 32.8866 93.793 32.627C93.0996 32.3538 92.496 31.9167 91.9824 31.3156C91.4687 30.7008 91.2119 29.8743 91.2119 28.8361C91.2119 27.9344 91.4495 27.1148 91.9246 26.377C92.3997 25.6393 93.106 25.0587 94.0434 24.6352C94.9937 24.2117 96.143 24 97.4914 24C98.416 24 99.3213 24.1093 100.207 24.3279C101.106 24.5328 101.896 24.8402 102.577 25.25L101.209 28.7541C99.8863 28.0437 98.6343 27.6885 97.4529 27.6885C96.2843 27.6885 95.7 27.9891 95.7 28.5902C95.7 28.877 95.8734 29.0956 96.2201 29.2459C96.5668 29.3825 97.1382 29.5328 97.9344 29.6967C98.9617 29.9016 99.8285 30.1407 100.535 30.4139C101.241 30.6735 101.851 31.1038 102.365 31.7049C102.891 32.306 103.155 33.1257 103.155 34.1639C103.155 35.0656 102.917 35.8852 102.442 36.623C101.967 37.347 101.254 37.9276 100.304 38.3648C99.3663 38.7883 98.2234 39 96.875 39Z" fill="white"/>
<path d="M111.576 39C110.125 39 108.822 38.679 107.666 38.0369C106.511 37.3948 105.605 36.5068 104.95 35.373C104.295 34.2254 103.968 32.9344 103.968 31.5C103.968 30.0656 104.295 28.7814 104.95 27.6475C105.605 26.5 106.511 25.6052 107.666 24.9631C108.822 24.321 110.125 24 111.576 24C113.028 24 114.331 24.321 115.487 24.9631C116.642 25.6052 117.548 26.5 118.203 27.6475C118.858 28.7814 119.185 30.0656 119.185 31.5C119.185 32.9344 118.858 34.2254 118.203 35.373C117.548 36.5068 116.642 37.3948 115.487 38.0369C114.331 38.679 113.028 39 111.576 39ZM111.576 35.0861C112.142 35.0861 112.649 34.9426 113.098 34.6557C113.561 34.3552 113.926 33.9385 114.196 33.4057C114.466 32.8593 114.601 32.224 114.601 31.5C114.601 30.776 114.466 30.1475 114.196 29.6148C113.926 29.0683 113.561 28.6516 113.098 28.3648C112.649 28.0642 112.142 27.9139 111.576 27.9139C111.011 27.9139 110.498 28.0642 110.036 28.3648C109.586 28.6516 109.226 29.0683 108.957 29.6148C108.687 30.1475 108.552 30.776 108.552 31.5C108.552 32.224 108.687 32.8593 108.957 33.4057C109.226 33.9385 109.586 34.3552 110.036 34.6557C110.498 34.9426 111.011 35.0861 111.576 35.0861Z" fill="white"/>
<path d="M120.835 24.3279H125.381V34.9221H131.468V38.6721H120.835V24.3279Z" fill="white"/>
<path d="M139.082 39C137.015 39 135.403 38.4057 134.247 37.2172C133.092 36.0287 132.514 34.362 132.514 32.2172V24.3279H137.06V32.0738C137.06 33.1257 137.233 33.8907 137.58 34.3689C137.939 34.847 138.453 35.0861 139.121 35.0861C139.789 35.0861 140.296 34.847 140.643 34.3689C141.002 33.8907 141.182 33.1257 141.182 32.0738V24.3279H145.651V32.2172C145.651 34.362 145.073 36.0287 143.917 37.2172C142.761 38.4057 141.15 39 139.082 39Z" fill="white"/>
<path d="M150.474 28.0779H146.525V24.3279H158.969V28.0779H155.02V38.6721H150.474V28.0779Z" fill="white"/>
<path d="M160.15 24.3279H164.696V38.6721H160.15V24.3279Z" fill="white"/>
<path d="M173.953 39C172.502 39 171.199 38.679 170.043 38.0369C168.887 37.3948 167.982 36.5068 167.327 35.373C166.672 34.2254 166.345 32.9344 166.345 31.5C166.345 30.0656 166.672 28.7814 167.327 27.6475C167.982 26.5 168.887 25.6052 170.043 24.9631C171.199 24.321 172.502 24 173.953 24C175.404 24 176.708 24.321 177.863 24.9631C179.019 25.6052 179.924 26.5 180.579 27.6475C181.234 28.7814 181.562 30.0656 181.562 31.5C181.562 32.9344 181.234 34.2254 180.579 35.373C179.924 36.5068 179.019 37.3948 177.863 38.0369C176.708 38.679 175.404 39 173.953 39ZM173.953 35.0861C174.518 35.0861 175.025 34.9426 175.475 34.6557C175.937 34.3552 176.303 33.9385 176.573 33.4057C176.843 32.8593 176.977 32.224 176.977 31.5C176.977 30.776 176.843 30.1475 176.573 29.6148C176.303 29.0683 175.937 28.6516 175.475 28.3648C175.025 28.0642 174.518 27.9139 173.953 27.9139C173.388 27.9139 172.874 28.0642 172.412 28.3648C171.963 28.6516 171.603 29.0683 171.334 29.6148C171.064 30.1475 170.929 30.776 170.929 31.5C170.929 32.224 171.064 32.8593 171.334 33.4057C171.603 33.9385 171.963 34.3552 172.412 34.6557C172.874 34.9426 173.388 35.0861 173.953 35.0861Z" fill="white"/>
<path d="M196.503 24.3279V38.6721H192.766L187.642 32.1557V38.6721H183.212V24.3279H186.949L192.072 30.8443V24.3279H196.503Z" fill="white"/>
<path d="M203.72 39C202.603 39 201.512 38.8702 200.446 38.6107C199.393 38.3374 198.526 37.9754 197.845 37.5246L199.309 34C199.951 34.3962 200.671 34.7172 201.467 34.9631C202.263 35.1954 203.027 35.3115 203.759 35.3115C204.388 35.3115 204.838 35.25 205.107 35.127C205.377 34.9904 205.512 34.7924 205.512 34.5328C205.512 34.2322 205.332 34.0068 204.973 33.8566C204.626 33.7063 204.048 33.5423 203.239 33.3648C202.199 33.1325 201.332 32.8866 200.639 32.627C199.945 32.3538 199.342 31.9167 198.828 31.3156C198.314 30.7008 198.057 29.8743 198.057 28.8361C198.057 27.9344 198.295 27.1148 198.77 26.377C199.245 25.6393 199.952 25.0587 200.889 24.6352C201.839 24.2117 202.989 24 204.337 24C205.261 24 206.167 24.1093 207.053 24.3279C207.952 24.5328 208.742 24.8402 209.422 25.25L208.055 28.7541C206.732 28.0437 205.48 27.6885 204.298 27.6885C203.13 27.6885 202.545 27.9891 202.545 28.5902C202.545 28.877 202.719 29.0956 203.066 29.2459C203.412 29.3825 203.984 29.5328 204.78 29.6967C205.807 29.9016 206.674 30.1407 207.38 30.4139C208.087 30.6735 208.697 31.1038 209.21 31.7049C209.737 32.306 210 33.1257 210 34.1639C210 35.0656 209.762 35.8852 209.287 36.623C208.812 37.347 208.099 37.9276 207.149 38.3648C206.212 38.7883 205.069 39 203.72 39Z" fill="white"/>
</g>
<g filter="url(#filter3_d)">
<path fill-rule="evenodd" clip-rule="evenodd" d="M208 19H91V17H208V19Z" fill="#FF3333"/>
</g>
<defs>
<filter id="filter0_d" x="0.5" y="0" width="85" height="47" filterUnits="userSpaceOnUse" color-interpolation-filters="sRGB">
<feFlood flood-opacity="0" result="BackgroundImageFix"/>
<feColorMatrix in="SourceAlpha" type="matrix" values="0 0 0 0 0 0 0 0 0 0 0 0 0 0 0 0 0 0 127 0"/>
<feOffset dy="4"/>
<feGaussianBlur stdDeviation="2"/>
<feColorMatrix type="matrix" values="0 0 0 0 0 0 0 0 0 0 0 0 0 0 0 0 0 0 0.25 0"/>
<feBlend mode="normal" in2="BackgroundImageFix" result="effect1_dropShadow"/>
<feBlend mode="normal" in="SourceGraphic" in2="effect1_dropShadow" result="shape"/>
</filter>
<filter id="filter1_d" x="88" y="0" width="42" height="20" filterUnits="userSpaceOnUse" color-interpolation-filters="sRGB">
<feFlood flood-opacity="0" result="BackgroundImageFix"/>
<feColorMatrix in="SourceAlpha" type="matrix" values="0 0 0 0 0 0 0 0 0 0 0 0 0 0 0 0 0 0 127 0"/>
<feOffset dy="4"/>
<feGaussianBlur stdDeviation="2"/>
<feColorMatrix type="matrix" values="0 0 0 0 0 0 0 0 0 0 0 0 0 0 0 0 0 0 0.25 0"/>
<feBlend mode="normal" in2="BackgroundImageFix" result="effect1_dropShadow"/>
<feBlend mode="normal" in="SourceGraphic" in2="effect1_dropShadow" result="shape"/>
</filter>
<filter id="filter2_d" x="87" y="24" width="127" height="23" filterUnits="userSpaceOnUse" color-interpolation-filters="sRGB">
<feFlood flood-opacity="0" result="BackgroundImageFix"/>
<feColorMatrix in="SourceAlpha" type="matrix" values="0 0 0 0 0 0 0 0 0 0 0 0 0 0 0 0 0 0 127 0"/>
<feOffset dy="4"/>
<feGaussianBlur stdDeviation="2"/>
<feColorMatrix type="matrix" values="0 0 0 0 0 0 0 0 0 0 0 0 0 0 0 0 0 0 0.25 0"/>
<feBlend mode="normal" in2="BackgroundImageFix" result="effect1_dropShadow"/>
<feBlend mode="normal" in="SourceGraphic" in2="effect1_dropShadow" result="shape"/>
</filter>
<filter id="filter3_d" x="87" y="17" width="125" height="10" filterUnits="userSpaceOnUse" color-interpolation-filters="sRGB">
<feFlood flood-opacity="0" result="BackgroundImageFix"/>
<feColorMatrix in="SourceAlpha" type="matrix" values="0 0 0 0 0 0 0 0 0 0 0 0 0 0 0 0 0 0 127 0"/>
<feOffset dy="4"/>
<feGaussianBlur stdDeviation="2"/>
<feColorMatrix type="matrix" values="0 0 0 0 0 0 0 0 0 0 0 0 0 0 0 0 0 0 0.25 0"/>
<feBlend mode="normal" in2="BackgroundImageFix" result="effect1_dropShadow"/>
<feBlend mode="normal" in="SourceGraphic" in2="effect1_dropShadow" result="shape"/>
</filter>
</defs>
</svg>
